<?xml version="1.0" encoding="utf-8"?>
<!-- Generator: Adobe Illustrator 19.0.0, SVG Export Plug-In . SVG Version: 6.00 Build 0)  -->
<svg version="1.2" baseProfile="tiny" id="Layer_2" xmlns="http://www.w3.org/2000/svg" xmlns:xlink="http://www.w3.org/1999/xlink"
	 x="0px" y="0px" viewBox="0 0 542 129" xml:space="preserve">
<radialGradient id="XMLID_87_" cx="270.9346" cy="111" r="181.0697" gradientUnits="userSpaceOnUse">
	<stop  offset="0" style="stop-color:#EB2227"/>
	<stop  offset="1" style="stop-color:#BE202E"/>
</radialGradient>
<rect id="XMLID_44_" x="14.9" y="106" fill="url(#XMLID_87_)" width="512" height="10"/>
<g id="XMLID_61_">
	<path id="XMLID_100_" fill="#F15B2A" d="M44.5,27.9L14.9,94h17.8L37,82.9h17.7L56.2,94h17.5L60.3,27.9H44.5z M42.5,68.7L49.8,50H50
		l2.6,18.7H42.5z"/>
	<polygon id="XMLID_101_" fill="#F15B2A" points="79.3,94 96.5,94 104.6,27.9 87.4,27.9 	"/>
	<path id="XMLID_104_" fill="#F15B2A" d="M155.1,60.7c2.1-4.1,3.2-8.8,3.2-14.2c0-2.6-0.4-5.1-1.1-7.3c-0.7-2.2-1.9-4.2-3.3-5.9
		c-1.5-1.7-3.5-3-5.9-4c-2.5-1-5.3-1.4-8.6-1.4h-24L107.3,94h16.4l2.5-20.6h3.3L138,94h18.5l-10.6-23.7l0-0.2
		C149.9,67.9,153,64.8,155.1,60.7z M138.5,55.9c-1.6,1.9-3.7,2.9-6.2,2.9h-4.2l2-16h5c1.6,0,3,0.5,4.1,1.5c1.1,1,1.7,2.6,1.7,4.7
		C140.9,51.7,140.1,54,138.5,55.9z"/>
	<polygon id="XMLID_105_" fill="#F15B2A" points="182.7,27.9 180.8,43 195.6,43 189.3,94 206.1,94 212.4,43 227.1,43 228.9,27.9 	
		"/>
	<path id="XMLID_108_" fill="#F15B2A" d="M266.3,70.1c4-2.2,7.1-5.3,9.2-9.4c2.1-4.1,3.2-8.8,3.2-14.2c0-2.6-0.4-5.1-1.1-7.3
		c-0.7-2.2-1.9-4.2-3.3-5.9c-1.5-1.7-3.5-3-5.9-4c-2.5-1-5.3-1.4-8.6-1.4h-24L227.7,94h16.4l2.5-20.6h3.3l8.4,20.6h18.5l-10.6-23.7
		L266.3,70.1z M258.9,55.9c-1.6,1.9-3.7,2.9-6.2,2.9h-4.2l2-16h5c1.6,0,3,0.5,4.1,1.5c1.1,1,1.7,2.6,1.7,4.7
		C261.3,51.7,260.5,54,258.9,55.9z"/>
	<path id="XMLID_109_" fill="#F15B2A" d="M310.4,68.7c-0.5,0.1-0.9,0.3-1.4,0.6l1.8-0.5C310.7,68.7,310.5,68.7,310.4,68.7z"/>
	<path id="XMLID_110_" fill="#F15B2A" d="M307.5,55.7l-0.2,0.2l-0.1,0.1l-0.1,0.1l0,0l-1.3,0.9l-0.4,0.3l0,0l-0.2,0.2l-0.2,0.2
		l-1.5,1.1l-0.1,0l-0.2,0.1l-0.1,0.1l-0.1,0l-1.1,0.7l-0.6,0.4l0,0l-0.2,0.2l-0.2,0.2l-1.5,1.1l1.8-0.5l2.4-0.6l3.4-0.9l0.1-0.5
		l-3.5,0.9l0,0l-0.2,0.1l-0.2,0.1l-0.5,0.1l0.5-0.3l0.2-0.1l0.2-0.1l0,0l3-1.8l0.3-0.2l0.4-0.3l0.1-0.1l0,0l0.3-0.2l1.6-0.9l0.6-1.7
		v4.2l0.3-0.1l0.1,0c0-1.7,0-3.5,0.2-5l-0.2,0.2L307.5,55.7z"/>
	<path id="XMLID_111_" fill="#F15B2A" d="M302.7,57.4C302.7,57.4,302.7,57.4,302.7,57.4C302.7,57.4,302.7,57.4,302.7,57.4
		c-0.1-0.4-0.2-0.7-0.4-0.7c-0.3,0-0.5,0.5-0.7,1.3c-0.1,0.3-0.1,0.7-0.2,1.1l0.7-0.5C302.2,57.9,302.4,57.4,302.7,57.4z"/>
	<path id="XMLID_112_" fill="#F15B2A" d="M310.7,67.2c-0.9,0.7-2.1,1.7-3.2,2.5l3.1-1.8l0.2,0.3l0.2,0.3
		C311,68,310.9,67.6,310.7,67.2C310.8,67.1,310.7,67.2,310.7,67.2z"/>
	<path id="XMLID_113_" fill="#F15B2A" d="M306.6,54.7c0.1,0,0.2,0.1,0.3,0.2c-0.1-0.6-0.3-0.9-0.6-0.9c-0.4,0-0.7,0.9-0.8,2.2
		L306,56C306.1,55.2,306.3,54.7,306.6,54.7z"/>
	<path id="XMLID_116_" fill="#F15B2A" d="M307.1,27.9L277.5,94h17.8l4.3-11.1h17.7l1.6,11.1h17.5l-13.4-66.1H307.1z M326.6,63.2
		l-13-3.8c-0.1,2.7-0.2,5.3-0.4,7.1l4.3,3v1.2l-4.8-1.4c-0.3,1-0.5,1.4-0.8,1.4c-0.2,0-0.5-0.5-0.8-1.4l-4.8,1.4v-1.2l4.3-3
		c-0.2-1.8-0.4-4.4-0.4-7.1l-13,3.8V62l3.7-2.5c0.1-0.7,0.1-1.2,0.2-1.7c0.1-0.4,0.3-1.5,1.1-1.5c0.7,0,1,1,1,1.3c0,0.1,0,0.1,0,0.2
		l1.7-1.2c0.1-0.8,0.1-1.4,0.3-1.9c0.1-0.4,0.3-1.5,1.1-1.5c0.7,0,1,1,1,1.3c0,0.1,0,0.2,0.1,0.3l2.8-2c0.2-3.9,0.7-6.9,1.6-6.9
		c0.9,0,1.4,3,1.6,6.9l2.8,1.9c0-0.1,0-0.2,0.1-0.3c0.1-0.4,0.3-1.3,1-1.3c0.8,0,1,1.1,1.1,1.5c0.1,0.5,0.2,1.1,0.3,1.9l1.7,1.2
		c0-0.1,0-0.1,0-0.2c0.1-0.4,0.3-1.3,1-1.3c0.8,0,1,1.1,1.1,1.5c0.1,0.4,0.2,1,0.2,1.7l3.7,2.5V63.2z"/>
	<path id="XMLID_117_" fill="#F15B2A" d="M321.1,57.4c0.3,0,0.5,0.5,0.6,1.3l0.7,0.5c0-0.4-0.1-0.8-0.2-1.2
		c-0.2-0.8-0.4-1.2-0.7-1.2C321.4,56.7,321.2,57,321.1,57.4C321.1,57.4,321.1,57.4,321.1,57.4C321.1,57.4,321.1,57.4,321.1,57.4z"/>
	<path id="XMLID_118_" fill="#F15B2A" d="M317.2,54.7c0.3,0,0.5,0.5,0.6,1.2l0.4,0.3c-0.1-1.3-0.4-2.2-0.8-2.2
		c-0.3,0-0.4,0.3-0.6,0.9C316.9,54.8,317.1,54.7,317.2,54.7z"/>
	<path id="XMLID_119_" fill="#F15B2A" d="M322.5,60.1L322.5,60.1l-0.6-0.4l-1.1-0.7l-0.1,0l-0.1-0.1l-0.2-0.1l-0.1,0l-1.5-1.1
		l-0.2-0.2l-0.2-0.2l0,0l-0.4-0.3l-1.3-0.9l0,0l-0.1-0.1l-0.1-0.1l-0.2-0.2l-2.7-1.9l-0.2-0.2c0.1,1.5,0.2,3.2,0.2,5l0.1,0l0.3,0.1
		v-4.2l0.6,1.7l1.6,0.9l0.3,0.2l0,0l0.1,0.1l0.4,0.3l0.3,0.2l3,1.8l0,0l0.2,0.1l0.2,0.1l0.5,0.3l-0.5-0.1l-0.2-0.1l-0.2-0.1l0,0
		l-3.5-0.9l0.1,0.5l3.4,0.9l2.4,0.6l1.8,0.5l-1.5-1.1l-0.2-0.2L322.5,60.1z"/>
	<path id="XMLID_120_" fill="#F15B2A" d="M313,68.7l1.8,0.5c-0.4-0.2-0.9-0.5-1.4-0.6C313.3,68.7,313.1,68.7,313,68.7z"/>
	<path id="XMLID_121_" fill="#F15B2A" d="M313,67.1c-0.1,0.5-0.2,0.9-0.2,1.3l0.2-0.3l0.2-0.3l3.1,1.8C315.2,68.8,314,67.9,313,67.1
		C313,67.2,313,67.1,313,67.1z"/>
	<path id="XMLID_124_" fill="#F15B2A" d="M312.9,58.6c0,0,0-0.1,0-0.1c0,0,0-0.1,0-0.1c0-1.8,0.1-3.5,0-5.1c0,0,0-0.1,0-0.1
		c0,0,0-0.1,0-0.1c0-0.2,0-0.3,0-0.5c0-0.9-0.1-1.7-0.1-2.5c-0.2-1.7-0.4-2.8-0.8-2.8c-0.4,0-0.7,1.1-0.9,2.8
		c-0.1,0.7-0.1,1.6-0.1,2.5c0,0.2,0,0.3,0,0.5c0,0,0,0.1,0,0.1c0,0,0,0.1,0,0.1c0,1.6,0,3.4,0,5.1c0,0,0,0.1,0,0.1c0,0,0,0.1,0,0.1
		c0,0.2,0,0.4,0,0.6c0.1,2.6,0.2,5.1,0.3,6.9c0,0.2,0,0.3,0,0.5c0,0,0,0.1,0,0.1c0,0,0,0.1,0,0.1c0.1,0.8,0.1,1.4,0.2,1.8
		c0,0,0,0,0,0c0,0,0,0.1,0,0.1c0,0,0,0.1,0,0.1c0,0.2,0.1,0.4,0.1,0.5c0.1,0.6,0.2,0.9,0.3,0.9c0.1,0,0.2-0.3,0.3-0.9
		c0-0.1,0.1-0.3,0.1-0.5c0,0,0-0.1,0-0.1c0,0,0-0.1,0-0.1c0,0,0,0,0,0c0-0.4,0.1-1,0.2-1.8c0,0,0-0.1,0-0.1c0,0,0-0.1,0-0.1
		c0-0.1,0-0.3,0-0.5c0.1-1.8,0.2-4.3,0.3-6.9C312.9,59,312.9,58.8,312.9,58.6z M312,47.9c0.2,0.1,0.3,0.5,0.3,1
		c-0.1-0.1-0.2-0.2-0.3-0.2V47.9z M311.9,54.2C311.9,54.2,311.9,54.2,311.9,54.2C311.9,54.2,311.9,54.2,311.9,54.2
		C311.9,54.2,311.9,54.2,311.9,54.2C311.9,54.2,311.9,54.2,311.9,54.2z M311.8,47.9v0.7c-0.1,0-0.2,0.1-0.3,0.2
		C311.5,48.4,311.6,48,311.8,47.9z M312.2,65.9c0,0.2,0,0.3,0,0.5c0,0,0,0.1,0,0.1c0,0,0,0.1,0,0.1c-0.1,0.8-0.1,1.5-0.1,1.9
		c0,0,0,0.1,0,0.1c0,0,0,0.1,0,0.1c0,0.3,0,0.4-0.1,0.5c0,0,0,0,0,0c0,0.2-0.1,0.2-0.1,0.2c0,0-0.1-0.1-0.1-0.2c0,0,0,0,0,0
		c0-0.1,0-0.2-0.1-0.5c0,0,0-0.1,0-0.1c0,0,0-0.1,0-0.1c0-0.5-0.1-1.1-0.1-1.9c0,0,0-0.1,0-0.1c0,0,0-0.1,0-0.1c0-0.1,0-0.3,0-0.5
		c-0.2-2.9-0.4-7.1-0.2-9.6c0.2,0.9,0.4,1.7,0.5,1.8c0,0,0.1,0,0.2,0c0-0.1,0.3-0.9,0.5-1.8C312.6,58.8,312.4,63,312.2,65.9z"/>
	<polygon id="XMLID_128_" fill="#F15B2A" points="388.9,43 390.7,27.9 349.6,27.9 341.5,94 357.9,94 360.7,71.3 380.7,71.3 
		382.6,56.3 362.5,56.3 364.2,43 	"/>
	<polygon id="XMLID_129_" fill="#F15B2A" points="437.5,43 439.3,27.9 398.2,27.9 390.1,94 406.5,94 409.3,71.3 429.3,71.3 
		431.2,56.3 411.1,56.3 412.8,43 	"/>
	<polygon id="XMLID_130_" fill="#F15B2A" points="439.1,94 456.3,94 464.3,27.9 447.2,27.9 	"/>
	<path id="XMLID_131_" fill="#F15B2A" d="M503.8,77.1c-2.2,1.1-4.5,1.6-6.8,1.6c-3.3,0-5.9-1.1-7.8-3.3s-2.9-5.3-2.9-9.4
		c0-2.8,0.4-5.5,1.2-8.2c0.8-2.7,1.8-5.1,3.2-7.3c1.4-2.2,3.1-3.9,5.2-5.3c2.1-1.3,4.4-2,6.9-2c2.2,0,4.3,0.7,6.1,2.1
		s3.5,3.3,4.8,5.6L527,40.9c-1.5-2.5-3.2-4.6-5.1-6.5c-1.9-1.8-3.9-3.3-5.9-4.3c-2-1-4-1.8-6-2.3c-2-0.5-4-0.7-6-0.7
		c-4.2,0-8.2,0.7-11.9,2c-3.7,1.3-7,3.2-9.9,5.7s-5.3,5.3-7.4,8.6s-3.6,7-4.7,11c-1.1,4-1.6,8.2-1.6,12.6c0,4.5,0.7,8.6,2,12.1
		c1.4,3.6,3.3,6.5,5.7,8.8c2.5,2.3,5.3,4,8.6,5.2c3.3,1.2,6.9,1.8,10.8,1.8c5.1,0,9.8-1,14.2-2.9c4.4-2,8.1-4.8,11.3-8.5l-11.7-11
		C507.9,74.5,506,76,503.8,77.1z"/>
	<polygon id="XMLID_132_" fill="#F15B2A" points="311.9,54.2 311.9,54.2 311.9,54.2 311.9,54.2 	"/>
	<path id="XMLID_133_" fill="#F15B2A" d="M311.8,48.6v-0.7c-0.2,0.1-0.3,0.5-0.3,1C311.5,48.8,311.6,48.7,311.8,48.6z"/>
	<path id="XMLID_134_" fill="#F15B2A" d="M312,58.1c0,0-0.1,0-0.2,0c0-0.1-0.3-0.9-0.5-1.8c-0.2,2.5,0,6.7,0.2,9.6
		c0,0.2,0,0.3,0,0.5c0,0,0,0.1,0,0.1c0,0,0,0.1,0,0.1c0.1,0.8,0.1,1.5,0.1,1.9c0,0,0,0.1,0,0.1c0,0,0,0.1,0,0.1c0,0.3,0,0.4,0.1,0.5
		c0,0,0,0,0,0c0,0.2,0.1,0.2,0.1,0.2c0,0,0.1-0.1,0.1-0.2c0,0,0,0,0,0c0-0.1,0-0.2,0.1-0.5c0,0,0-0.1,0-0.1c0,0,0-0.1,0-0.1
		c0-0.5,0.1-1.1,0.1-1.9c0,0,0-0.1,0-0.1c0,0,0-0.1,0-0.1c0-0.1,0-0.3,0-0.5c0.2-2.9,0.4-7.1,0.2-9.6C312.3,57.2,312,58,312,58.1z"
		/>
	<path id="XMLID_135_" fill="#F15B2A" d="M312.4,48.9c-0.1-0.5-0.2-0.9-0.3-1v0.7C312.2,48.7,312.3,48.8,312.4,48.9z"/>
</g>
</svg>
